<?xml version="1.0" encoding="UTF-8"?>
<svg width="12px" height="12px" viewBox="0 0 12 12" version="1.1" xmlns="http://www.w3.org/2000/svg" xmlns:xlink="http://www.w3.org/1999/xlink">
    <title>Slice 1</title>
    <g id="Page-1" stroke="none" stroke-width="1" fill="none" fill-rule="evenodd">
        <g id="Group" fill-rule="nonzero">
            <path d="M11.2086,6.3296 C11.3742,6.1409 11.3742,5.85865 11.2086,5.66995 L10.4199,4.77143 C10.3294,4.66823 10.2852,4.53233 10.2978,4.3956 L10.4077,3.20626 C10.4308,2.95647 10.2652,2.72825 10.0206,2.67268 L8.85242,2.40733 C8.71874,2.37697 8.60339,2.29305 8.53335,2.17521 L7.92213,1.14681 C7.79391,0.931074 7.52563,0.843811 7.29503,0.942835 L6.19533,1.41506 C6.06937,1.46915 5.92672,1.46915 5.80076,1.41506 L4.70106,0.942835 C4.47046,0.843811 4.20218,0.931074 4.07396,1.14681 L3.46314,2.17454 C3.39287,2.29277 3.277,2.37684 3.14279,2.40695 L1.97689,2.66855 C1.73164,2.72358 1.56536,2.95213 1.58848,3.20242 L1.69831,4.39113 C1.71091,4.52754 1.66699,4.66316 1.5768,4.76628 L0.786429,5.67003 C0.621368,5.85876 0.621619,6.14057 0.787015,6.32901 L1.57621,7.22818 C1.66676,7.33134 1.71091,7.4672 1.69832,7.60388 L1.58826,8.79839 C1.56524,9.04814 1.73082,9.27629 1.97539,9.33185 L3.14368,9.59722 C3.27736,9.62758 3.3927,9.7115 3.46274,9.82934 L4.0734,10.8568 C4.20186,11.0729 4.47085,11.1601 4.70164,11.0603 L5.8003,10.5853 C5.92652,10.5307 6.06965,10.5305 6.19601,10.5848 L7.29503,11.0567 C7.52564,11.1557 7.79391,11.0685 7.92213,10.8527 L8.53335,9.82434 C8.60339,9.7065 8.71874,9.62258 8.85242,9.59222 L10.0206,9.32687 C10.2652,9.2713 10.4308,9.04308 10.4077,8.79329 L10.2978,7.60395 C10.2852,7.46722 10.3294,7.33132 10.4199,7.22812 L11.2086,6.3296 Z" id="Path" fill="#BD6CF8"></path>
            <path d="M4.14844,7.755 C4.14844,8.03143 4.35929,8.25 4.62596,8.25 L5.84146,8.25 C7.2058,8.25 8.14844,7.26643 8.14844,6 L8.14844,5.98714 C8.14844,4.72071 7.2058,3.75 5.84146,3.75 L4.62596,3.75 C4.35929,3.75 4.14844,3.96857 4.14844,4.245 L4.14844,7.755 Z M5.10348,7.35643 L5.10348,4.64357 L5.84146,4.64357 C6.62286,4.64357 7.14999,5.20286 7.14999,6 L7.14999,6.01286 C7.14999,6.81 6.62286,7.35643 5.84146,7.35643 L5.10348,7.35643 Z" id="Shape" fill="#FFFFFF"></path>
        </g>
    </g>
</svg>