<?xml version="1.0" encoding="UTF-8"?>
<svg width="54px" height="59px" viewBox="0 0 54 59" version="1.1" xmlns="http://www.w3.org/2000/svg" xmlns:xlink="http://www.w3.org/1999/xlink">
    <title>Untitled 2</title>
    <g id="Page-1" stroke="none" stroke-width="1" fill="none" fill-rule="evenodd">
        <g id="Group" fill="#C4C4C4">
            <path d="M52,7 L51,7 L51,5 C51,2.24 48.76,0 46,0 C43.24,0 41,2.24 41,5 L41,7 L40,7 C38.9,7 38,7.9 38,9 L38,19 C38,20.1 38.9,21 40,21 L52,21 C53.1,21 54,20.1 54,19 L54,9 C54,7.9 53.1,7 52,7 Z M46,16 C44.9,16 44,15.1 44,14 C44,12.9 44.9,12 46,12 C47.1,12 48,12.9 48,14 C48,15.1 47.1,16 46,16 Z M43,5 L43,7 L49,7 L49,5 C49,3.34 47.66,2 46,2 C44.34,2 43,3.34 43,5 Z M46,32.5 C48.0963,32.5 50.1089,32.1417 51.9798,31.4829 C51.743,37.2436 49.4332,42.4814 45.7615,46.5 L42.5,46 L41.2299,46.7762 C39.1186,50.2101 35.3267,52.5 31,52.5 C26.6855,52.5 22.9028,50.2231 20.7881,46.8053 C20.2976,46.3338 19.8586,45.8885 19.5,45.5 L8.37355,45.5 L4,45.5 L4,53.5 L9,53 C10.0023,52.2841 12.0134,50.8054 13.0674,49.8957 C13.2402,49.7466 13.3873,49.6127 13.5,49.5 C16.6667,47.1667 19.5,49 18,51 C17.6853,51.4196 17.3521,51.8165 17.0029,52.1918 C12.0991,57.462 4.04527,58.4668 0,58 L0,40.5 L5.22151,40.5 L19,40.5 L18.5,33.5 L3.04707,29 C3.8375,16.4439 14.4833,6.5 27.5,6.5 C28.282,6.5 29.0555,6.53589 29.8188,6.60609 C28.6538,8.98952 28,11.6684 28,14.5 C28,24.4411 36.0589,32.5 46,32.5 Z M39,40.5 C39,44.9183 35.4183,48.5 31,48.5 C26.5817,48.5 23,44.9183 23,40.5 C23,36.0817 26.5817,32.5 31,32.5 C35.4183,32.5 39,36.0817 39,40.5 Z M35,40.5 C35,42.7091 33.2091,44.5 31,44.5 C28.7909,44.5 27,42.7091 27,40.5 C27,38.2909 28.7909,36.5 31,36.5 C33.2091,36.5 35,38.2909 35,40.5 Z" id="Shape"></path>
        </g>
    </g>
</svg>