<?xml version="1.0" encoding="UTF-8"?>
<svg width="18px" height="18px" viewBox="0 0 18 18" version="1.1" xmlns="http://www.w3.org/2000/svg" xmlns:xlink="http://www.w3.org/1999/xlink">
    <title>Untitled 4</title>
    <g id="Page-1" stroke="none" stroke-width="1" fill="none" fill-rule="evenodd">
        <g id="Group" fill="#4F5C6D">
            <path d="M12.1865,11.5734 L12.9765,11.5734 L17.2165,15.8334 C17.6265,16.2434 17.6265,16.9134 17.2165,17.3234 C16.8065,17.7334 16.1365,17.7334 15.7265,17.3234 L11.4765,13.0734 L11.4765,12.2834 L11.2065,12.0034 C9.8065,13.2034 7.8965,13.8234 5.86646,13.4834 C3.08646,13.0134 0.86646,10.6934 0.52646,7.8934 C0.00646,3.66341 3.56646,0.10341 7.7965,0.62341 C10.5965,0.96341 12.9165,3.18341 13.3865,5.96341 C13.7265,7.9934 13.1065,9.9034 11.9065,11.3034 L12.1865,11.5734 Z M2.47646,7.0734 C2.47646,9.5634 4.48646,11.57341 6.97646,11.57341 C9.4665,11.57341 11.4765,9.5634 11.4765,7.0734 C11.4765,4.58341 9.4665,2.57341 6.97646,2.57341 C4.48646,2.57341 2.47646,4.58341 2.47646,7.0734 Z" id="Shape"></path>
        </g>
    </g>
</svg>