<?xml version="1.0" encoding="UTF-8"?>
<svg width="20px" height="20px" viewBox="0 0 20 20" version="1.1" xmlns="http://www.w3.org/2000/svg" xmlns:xlink="http://www.w3.org/1999/xlink">
    <title>Slice 1</title>
    <g id="Page-1" stroke="none" stroke-width="1" fill="none" fill-rule="evenodd">
        <g id="Group" fill="#FFFFFF">
            <path d="M17.5023,10 C17.5023,10.34 17.4723,10.66 17.4323,10.98 L19.5423,12.63 C19.7323,12.78 19.7823,13.05 19.6623,13.27 L17.6623,16.73 C17.5723,16.89 17.4023,16.98 17.2323,16.98 C17.1723,16.98 17.1123,16.97 17.0523,16.95 L14.5623,15.95 C14.0423,16.34 13.4823,16.68 12.8723,16.93 L12.4923,19.58 C12.4623,19.82 12.2523,20 12.0023,20 L8.0023,20 C7.75228,20 7.54228,19.82 7.51228,19.58 L7.13228,16.93 C6.52228,16.68 5.96228,16.35 5.44228,15.95 L2.95228,16.95 C2.90228,16.97 2.84228,16.98 2.78228,16.98 C2.60228,16.98 2.43228,16.89 2.34228,16.73 L0.34228,13.27 C0.22228,13.05 0.27228,12.78 0.46228,12.63 L2.57228,10.98 C2.53228,10.66 2.50228,10.33 2.50228,10 C2.50228,9.67 2.53228,9.34 2.57228,9.02 L0.46228,7.37 C0.27228,7.22 0.21228,6.95 0.34228,6.73 L2.34228,3.27 C2.43228,3.11 2.60228,3.02 2.77228,3.02 C2.83228,3.02 2.89228,3.03 2.95228,3.05 L5.44228,4.05 C5.96228,3.66 6.52228,3.32 7.13228,3.07 L7.51228,0.42 C7.54228,0.18 7.75228,0 8.0023,0 L12.0023,0 C12.2523,0 12.4623,0.18 12.4923,0.42 L12.8723,3.07 C13.4823,3.32 14.0423,3.65 14.5623,4.05 L17.0523,3.05 C17.1023,3.03 17.1623,3.02 17.2223,3.02 C17.4023,3.02 17.5723,3.11 17.6623,3.27 L19.6623,6.73 C19.7823,6.95 19.7323,7.22 19.5423,7.37 L17.4323,9.02 C17.4723,9.34 17.5023,9.66 17.5023,10 Z M15.5023,10 C15.5023,9.79 15.4923,9.58 15.4523,9.27 L15.3123,8.14 L16.2023,7.44 L17.2723,6.59 L16.5723,5.38 L15.3023,5.89 L14.2423,6.32 L13.3323,5.62 C12.9323,5.32 12.5323,5.09 12.1023,4.91 L11.0423,4.48 L10.8823,3.35 L10.6923,2 L9.3023,2 L9.1023,3.35 L8.9423,4.48 L7.88228,4.91 C7.47228,5.08 7.06228,5.32 6.63228,5.64 L5.73228,6.32 L4.69228,5.9 L3.42228,5.39 L2.72228,6.6 L3.80228,7.44 L4.69228,8.14 L4.55228,9.27 C4.52228,9.57 4.50228,9.8 4.50228,10 C4.50228,10.2 4.52228,10.43 4.55228,10.74 L4.69228,11.87 L3.80228,12.57 L2.72228,13.41 L3.42228,14.62 L4.69228,14.11 L5.75228,13.68 L6.66228,14.38 C7.06228,14.68 7.46228,14.91 7.89228,15.09 L8.9523,15.52 L9.1123,16.65 L9.3023,18 L10.7023,18 L10.9023,16.65 L11.0623,15.52 L12.1223,15.09 C12.5323,14.92 12.9423,14.68 13.3723,14.36 L14.2723,13.68 L15.3123,14.1 L16.5823,14.61 L17.2823,13.4 L16.2023,12.56 L15.3123,11.86 L15.4523,10.73 C15.4823,10.43 15.5023,10.21 15.5023,10 Z M10.0023,6 C7.79228,6 6.00228,7.79 6.00228,10 C6.00228,12.21 7.79228,14 10.0023,14 C12.2123,14 14.0023,12.21 14.0023,10 C14.0023,7.79 12.2123,6 10.0023,6 Z M8.0023,10 C8.0023,11.1 8.9023,12 10.0023,12 C11.1023,12 12.0023,11.1 12.0023,10 C12.0023,8.9 11.1023,8 10.0023,8 C8.9023,8 8.0023,8.9 8.0023,10 Z" id="Shape"></path>
        </g>
    </g>
</svg>