<?xml version="1.0" encoding="UTF-8"?>
<svg width="20px" height="18px" viewBox="0 0 20 18" version="1.1" xmlns="http://www.w3.org/2000/svg" xmlns:xlink="http://www.w3.org/1999/xlink">
    <title>Untitled 2</title>
    <g id="Page-1" stroke="none" stroke-width="1" fill="none" fill-rule="evenodd">
        <g id="Group" fill="#FFD561">
            <path d="M17.5301,17.5037 C19.0701,17.5037 20.0301,15.8337 19.2601,14.5037 L11.7301,1.49375 C10.9601,0.16375 9.0401,0.16375 8.2701,1.49375 L0.74012,14.5037 C-0.02988,15.8337 0.93012,17.5037 2.47012,17.5037 L17.5301,17.5037 Z M10.0001,10.5037 C9.4501,10.5037 9.0001,10.0537 9.0001,9.5037 L9.0001,7.5037 C9.0001,6.95375 9.4501,6.50375 10.0001,6.50375 C10.5501,6.50375 11.0001,6.95375 11.0001,7.5037 L11.0001,9.5037 C11.0001,10.0537 10.5501,10.5037 10.0001,10.5037 Z M9.0001,12.5037 L9.0001,14.5037 L11.0001,14.5037 L11.0001,12.5037 L9.0001,12.5037 Z" id="Shape"></path>
        </g>
    </g>
</svg>